HIERARCHY
ROOT hip
{
	OFFSET 0.000000 -149.730927 -4.954829
	CHANNELS 6 Xposition Yposition Zposition Zrotation Xrotation Yrotation
	JOINT chest
	{
		OFFSET 0.000000 1.232370 4.954829
		CHANNELS 3 Zrotation Xrotation Yrotation
		JOINT neck
		{
			OFFSET 0.000000 6.156469 11.719190
			CHANNELS 3 Zrotation Xrotation Yrotation
			JOINT upperNeck
			{
				OFFSET -0.005596 4.916550 1.289021
				CHANNELS 3 Zrotation Xrotation Yrotation
				JOINT head
				{
					OFFSET 0.005596 5.264259 2.109870
					CHANNELS 3 Zrotation Xrotation Yrotation
					JOINT hplume
					{
						OFFSET 0.000436 7.801170 -6.158082
						CHANNELS 3 Zrotation Xrotation Yrotation
						End Site
						{
							OFFSET 5.641092 -5.483479 2.662390
						}
					}
					JOINT lEye
					{
						OFFSET 3.504127 8.374199 3.826759
						CHANNELS 3 Zrotation Xrotation Yrotation
						End Site
						{
							OFFSET -5.641092 -5.483479 2.662390
						}
					}
					JOINT rEye
					{
						OFFSET -3.504127 8.374199 3.826759
						CHANNELS 3 Zrotation Xrotation Yrotation
						End Site
						{
							OFFSET 7.071361 -2.489611 -2.333646
						}
					}
				}
			}
		}
		JOINT lCollar
		{
			OFFSET 4.145280 0.975359 7.559040
			CHANNELS 3 Zrotation Xrotation Yrotation
			JOINT lWing1
			{
				OFFSET 2.926081 -0.975359 -0.731520
				CHANNELS 3 Zrotation Xrotation Yrotation
				JOINT lWing2
				{
					OFFSET 2.682239 -2.194561 0.975360
					CHANNELS 3 Zrotation Xrotation Yrotation
					End Site
					{
						OFFSET -7.071361 -2.489611 -2.333646
					}
				}
			}
		}
		JOINT rCollar
		{
			OFFSET -4.145280 0.975359 7.559040
			CHANNELS 3 Zrotation Xrotation Yrotation
			JOINT rWing1
			{
				OFFSET -2.926081 -0.975359 -0.731520
				CHANNELS 3 Zrotation Xrotation Yrotation
				JOINT rWing2
				{
					OFFSET -2.682239 -2.194561 0.975360
					CHANNELS 3 Zrotation Xrotation Yrotation
					End Site
					{
						OFFSET 4.795626 -6.474880 4.722280
					}
				}
			}
		}
	}
	JOINT lThigh
	{
		OFFSET 4.145280 0.744690 -1.141172
		CHANNELS 3 Zrotation Xrotation Yrotation
		JOINT lLeg
		{
			OFFSET 0.731520 -6.339840 1.950721
			CHANNELS 3 Zrotation Xrotation Yrotation
			JOINT lShin
			{
				OFFSET 1.463040 -9.997440 -0.487680
				CHANNELS 3 Zrotation Xrotation Yrotation
				JOINT lFoot
				{
					OFFSET 1.574012 -7.813023 5.744861
					CHANNELS 3 Zrotation Xrotation Yrotation
					JOINT lThumb1
					{
						OFFSET -0.229454 -3.039442 0.129506
						CHANNELS 3 Zrotation Xrotation Yrotation
						JOINT lThumb2
						{
							OFFSET -0.178246 -0.992136 -2.748092
							CHANNELS 3 Zrotation Xrotation Yrotation
							JOINT lThumb3
							{
								OFFSET -0.095220 -0.664537 -1.832362
								CHANNELS 3 Zrotation Xrotation Yrotation
								End Site
								{
									OFFSET 4.223162 0.662270 4.550159
								}
							}
						}
					}
					JOINT lRing1
					{
						OFFSET 2.521528 -1.600640 2.842160
						CHANNELS 3 Zrotation Xrotation Yrotation
						JOINT lRing2
						{
							OFFSET 1.107150 -0.222918 1.523975
							CHANNELS 3 Zrotation Xrotation Yrotation
							JOINT lRing3
							{
								OFFSET 2.225600 -1.357067 2.736080
								CHANNELS 3 Zrotation Xrotation Yrotation
								End Site
								{
									OFFSET 1.018519 0.478268 7.016429
								}
							}
						}
					}
					JOINT lMid1
					{
						OFFSET 0.163641 -2.029359 3.651635
						CHANNELS 3 Zrotation Xrotation Yrotation
						JOINT lMid2
						{
							OFFSET 0.576608 -0.330354 3.296961
							CHANNELS 3 Zrotation Xrotation Yrotation
							JOINT lMid3
							{
								OFFSET 0.362152 -0.990478 3.139173
								CHANNELS 3 Zrotation Xrotation Yrotation
								End Site
								{
									OFFSET -3.061849 0.554712 5.892425
								}
							}
						}
					}
					JOINT lIndex1
					{
						OFFSET -2.608454 -1.947916 3.683042
						CHANNELS 3 Zrotation Xrotation Yrotation
						JOINT lIndex2
						{
							OFFSET -0.682849 -0.536814 2.338889
							CHANNELS 3 Zrotation Xrotation Yrotation
							JOINT lIndex3
							{
								OFFSET -0.837006 -0.958121 2.571901
								CHANNELS 3 Zrotation Xrotation Yrotation
								End Site
								{
									OFFSET -4.795626 -6.474880 4.722280
								}
							}
						}
					}
				}
			}
		}
	}
	JOINT rThigh
	{
		OFFSET -4.145280 0.744690 -1.141172
		CHANNELS 3 Zrotation Xrotation Yrotation
		JOINT rLeg
		{
			OFFSET -0.731520 -6.339840 1.950721
			CHANNELS 3 Zrotation Xrotation Yrotation
			JOINT rShin
			{
				OFFSET -1.463040 -9.997440 -0.487680
				CHANNELS 3 Zrotation Xrotation Yrotation
				JOINT rFoot
				{
					OFFSET -1.574012 -7.813023 5.744861
					CHANNELS 3 Zrotation Xrotation Yrotation
					JOINT rThumb1
					{
						OFFSET 0.229454 -3.039442 0.129506
						CHANNELS 3 Zrotation Xrotation Yrotation
						JOINT rThumb2
						{
							OFFSET 0.178246 -0.992136 -2.748092
							CHANNELS 3 Zrotation Xrotation Yrotation
							JOINT rThumb3
							{
								OFFSET 0.095220 -0.664537 -1.832362
								CHANNELS 3 Zrotation Xrotation Yrotation
								End Site
								{
									OFFSET -4.223162 0.662270 4.550159
								}
							}
						}
					}
					JOINT rRing1
					{
						OFFSET -2.521528 -1.600640 2.842160
						CHANNELS 3 Zrotation Xrotation Yrotation
						JOINT rRing2
						{
							OFFSET -1.107150 -0.222918 1.523975
							CHANNELS 3 Zrotation Xrotation Yrotation
							JOINT rRing3
							{
								OFFSET -2.225600 -1.357067 2.736080
								CHANNELS 3 Zrotation Xrotation Yrotation
								End Site
								{
									OFFSET -1.018519 0.478268 7.016429
								}
							}
						}
					}
					JOINT rMid1
					{
						OFFSET -0.163641 -2.029359 3.651635
						CHANNELS 3 Zrotation Xrotation Yrotation
						JOINT rMid2
						{
							OFFSET -0.576608 -0.330354 3.296961
							CHANNELS 3 Zrotation Xrotation Yrotation
							JOINT rMid3
							{
								OFFSET -0.362152 -0.990478 3.139173
								CHANNELS 3 Zrotation Xrotation Yrotation
								End Site
								{
									OFFSET 3.061849 0.554712 5.892425
								}
							}
						}
					}
					JOINT rIndex1
					{
						OFFSET 2.608454 -1.947916 3.683042
						CHANNELS 3 Zrotation Xrotation Yrotation
						JOINT rIndex2
						{
							OFFSET 0.682849 -0.536814 2.338889
							CHANNELS 3 Zrotation Xrotation Yrotation
							JOINT rIndex3
							{
								OFFSET 0.837006 -0.958121 2.571901
								CHANNELS 3 Zrotation Xrotation Yrotation
								End Site
								{
									OFFSET 0.000000 18.467709 -18.922054
								}
							}
						}
					}
				}
			}
		}
	}
	JOINT tplume
	{
		OFFSET 0.000000 3.670769 -4.798771
		CHANNELS 3 Zrotation Xrotation Yrotation
		End Site
		{
			OFFSET 0.000000 18.467709 -18.922054
		}
	}
}
MOTION
Frames:	4
Frame Time:	0.0333333
0.000000 -11.339779 0.000000 -1.001549 3.187014 0.055687 3.433513 4.150660 0.480368 -1.466215 -0.365339 12.639886 -4.543822 -15.054089 5.671811 1.709249 17.481312 4.763620 -22.035612 -33.873158 -1.536016 0.000000 0.000000 0.000000 0.000000 0.000000 0.000000 3.759687 32.337078 3.793482 -30.143015 13.941628 8.199407 -37.889404 40.416588 51.671852 -1.574100 29.153610 -0.178331 24.305761 10.033620 -4.953101 26.912016 35.322742 -42.594124 -3.021402 -34.641037 -6.310576 -21.867601 65.904854 20.794987 -1.471625 -58.711857 -8.316671 -1.263055 35.851727 6.706783 0.000000 0.000000 0.000000 0.097908 -1.997529 0.018841 0.000000 0.000000 0.000000 8.453064 -11.601235 0.860268 6.292401 -8.453825 0.490400 11.309624 -14.737125 1.467241 1.765809 -11.301394 -0.260684 1.541512 -13.503847 -0.042280 2.049657 -13.214930 -0.123788 -1.917343 -12.439930 6.513826 -2.015130 -6.692002 -0.117827 -3.872739 -13.529065 -0.459537 1.397833 -23.877279 -0.876394 57.068062 75.693069 -56.982285 7.932042 -73.952156 16.158283 2.463241 26.898438 -8.037190 -0.251378 -3.991693 -0.066145 0.000000 0.000000 0.000000 0.000000 0.000000 0.000000 -8.659554 -11.874599 -0.902275 -6.292401 -8.453825 -0.490400 -11.893127 -15.451768 -1.619196 -1.895770 -12.131088 0.266144 -1.707386 -14.994746 0.038435 -2.113528 -13.620046 0.119991 2.015480 -12.766010 -6.502354 2.746716 -9.084688 0.218255 4.278240 -14.883163 0.559059 -15.706490 -24.532593 12.795341 
0.000000 -13.059811 0.000000 -0.705061 3.143762 0.038669 2.745950 8.832453 -1.685121 -1.018984 -6.637743 8.822222 -3.254291 -18.407570 3.798118 1.281952 26.395624 3.144764 -21.093699 -39.363667 2.364982 0.000000 0.000000 0.000000 0.000000 0.000000 0.000000 5.171619 35.438206 2.455196 -32.276608 12.399864 6.112723 -38.675674 40.354816 51.145733 -3.848911 33.215523 0.213711 28.215307 9.661791 -3.790405 30.839701 36.810074 -44.634327 -1.958600 -35.622635 -5.847179 -48.421799 75.229103 46.474270 -7.907551 -74.150475 -16.115105 -2.343551 39.049706 9.054894 0.000000 0.000000 0.000000 0.068851 -1.406264 0.012907 0.000000 0.000000 0.000000 8.794164 -12.052427 0.930178 5.270750 -7.135392 0.360588 11.645138 -15.148817 1.553757 1.705921 -10.918435 -0.257522 1.541190 -13.369466 -0.010822 1.900764 -12.267341 -0.130843 -1.479620 -12.386484 8.155622 -1.675854 -5.573462 -0.081580 -3.797769 -13.276900 -0.442159 0.794042 -28.027426 0.839460 91.952950 76.748306 -90.706337 34.541798 -84.067268 43.695854 3.151011 32.718693 -10.025148 -0.176408 -2.810183 -0.044718 0.000000 0.000000 0.000000 0.000000 0.000000 0.000000 -8.939973 -12.244714 -0.960864 -5.270750 -7.135392 -0.360588 -12.057119 -15.651474 -1.663164 -1.797287 -11.502534 0.262182 -1.657832 -14.419063 0.008590 -1.945508 -12.552547 0.128988 1.548293 -12.616101 -8.149406 2.187538 -7.258414 0.138765 4.082113 -14.230343 0.509764 -18.615309 -27.038448 6.661875 
0.000000 -14.593291 0.000000 -0.432631 3.094412 0.023354 2.110728 13.126753 -3.552860 -0.619023 -12.275895 5.392247 -2.034603 -21.401928 2.219651 0.854725 34.447060 1.795863 -20.035181 -44.299713 6.181411 0.000000 0.000000 0.000000 0.000000 0.000000 0.000000 6.542601 38.159527 1.177544 -34.181816 10.954568 4.210434 -39.201492 40.195621 50.452694 -5.857019 36.804977 0.537302 31.717094 9.283726 -2.764548 34.341919 38.040020 -46.398399 -0.959366 -36.470081 -5.374465 -96.572289 76.927940 93.817223 -65.062347 -85.928818 -74.455917 -3.389269 41.809029 11.269940 0.000000 0.000000 0.000000 0.042209 -0.862937 0.007719 0.000000 0.000000 0.000000 9.077596 -12.425879 0.990264 4.328055 -5.909436 0.261712 11.913717 -15.476871 1.624686 1.646039 -10.535165 -0.253954 1.536008 -13.205080 0.017264 1.759602 -11.365191 -0.135203 -1.074938 -12.289722 9.625179 -1.362478 -4.536318 -0.053967 -3.717261 -13.005498 -0.423856 0.237751 -31.799513 2.333637 118.442909 73.663399 -116.127327 137.362152 -83.330559 147.335876 3.855162 37.908669 -11.873651 -0.107962 -1.724447 -0.026407 0.000000 0.000000 0.000000 0.000000 0.000000 0.000000 -9.167299 -12.543789 -1.009657 -4.328055 -5.909436 -0.261712 -12.167089 -15.785106 -1.692955 -1.702037 -10.893586 0.257303 -1.607498 -13.849151 -0.018310 -1.786946 -11.540208 0.134536 1.116843 -12.430647 -9.622420 1.674956 -5.570494 0.081492 3.891076 -13.590660 0.463837 -21.230295 -29.050400 0.824018 
0.000000 -15.827811 0.000000 -0.208295 3.047980 0.011076 1.579134 16.663229 -5.004714 -0.286009 -16.835447 2.623754 -0.996880 -23.811680 1.023944 0.449685 40.993332 0.802450 -18.966970 -48.288933 9.549469 0.000000 0.000000 0.000000 0.000000 0.000000 0.000000 7.731709 40.322536 0.083288 -35.723740 9.748468 2.652229 -39.519478 40.000744 49.758404 -7.453621 39.673695 0.775801 34.548023 8.948326 -1.947750 37.162319 38.969524 -47.785912 -0.120534 -37.133839 -4.953699 -126.116470 71.925163 122.701660 -152.011612 -79.137665 -162.365372 -4.294626 43.969677 13.142428 0.000000 0.000000 0.000000 0.020308 -0.415489 0.003637 0.000000 0.000000 0.000000 9.292906 -12.708661 1.037113 3.549424 -4.891128 0.195330 12.110873 -15.716822 1.677695 1.593813 -10.200649 -0.250511 1.528800 -13.045081 0.039903 1.640785 -10.603345 -0.137114 -0.740408 -12.180644 10.811158 -1.103435 -3.676604 -0.035416 -3.644030 -12.758090 -0.407530 -0.227767 -34.881145 3.503538 131.834671 69.495064 -128.637100 156.577393 -76.077339 167.214569 4.503160 42.085743 -13.431750 -0.051876 -0.830295 -0.012307 0.000000 0.000000 0.000000 0.000000 0.000000 0.000000 -9.336181 -12.765402 -1.046654 -3.549424 -4.891128 -0.195330 -12.233057 -15.865157 -1.710945 -1.620751 -10.373220 0.252326 -1.563185 -13.355188 -0.040263 -1.653912 -10.687613 0.136982 0.760492 -12.248503 -10.810249 1.253419 -4.174610 0.045685 3.727447 -13.039873 0.426151 -23.337862 -30.523966 -4.105731 
